solid OpenSCAD_Model
  facet normal 0.997564 0.0697568 0
    outer loop
      vertex 2.55 0 4.5
      vertex 2.52518 0.354891 0
      vertex 2.52518 0.354891 4.5
    endloop
  endfacet
  facet normal 0.997564 0.0697568 0
    outer loop
      vertex 2.52518 0.354891 0
      vertex 2.55 0 4.5
      vertex 2.55 0 0
    endloop
  endfacet
  facet normal -1 0 0
    outer loop
      vertex -2.54379 -0.177878 0
      vertex -2.54379 0.177878 4.5
      vertex -2.54379 0.177878 0
    endloop
  endfacet
  facet normal -1 -0 0
    outer loop
      vertex -2.54379 0.177878 4.5
      vertex -2.54379 -0.177878 0
      vertex -2.54379 -0.177878 4.5
    endloop
  endfacet
  facet normal -0.0348972 0.999391 0
    outer loop
      vertex 0.0889931 2.54845 0
      vertex -0.266547 2.53603 4.5
      vertex 0.0889931 2.54845 4.5
    endloop
  endfacet
  facet normal -0.0348972 0.999391 0
    outer loop
      vertex -0.266547 2.53603 4.5
      vertex 0.0889931 2.54845 0
      vertex -0.266547 2.53603 0
    endloop
  endfacet
  facet normal 0.104528 -0.994522 0
    outer loop
      vertex 0.0889931 -2.54845 0
      vertex 0.442802 -2.51126 4.5
      vertex 0.0889931 -2.54845 4.5
    endloop
  endfacet
  facet normal 0.104528 -0.994522 0
    outer loop
      vertex 0.442802 -2.51126 4.5
      vertex 0.0889931 -2.54845 0
      vertex 0.442802 -2.51126 0
    endloop
  endfacet
  facet normal 0.71934 0.694659 0
    outer loop
      vertex 1.95341 1.63911 4.5
      vertex 1.70628 1.89502 0
      vertex 1.70628 1.89502 4.5
    endloop
  endfacet
  facet normal 0.71934 0.694659 0
    outer loop
      vertex 1.70628 1.89502 0
      vertex 1.95341 1.63911 4.5
      vertex 1.95341 1.63911 0
    endloop
  endfacet
  facet normal -0.669131 0.743145 0
    outer loop
      vertex -1.56994 2.00943 0
      vertex -1.83432 1.77138 4.5
      vertex -1.56994 2.00943 4.5
    endloop
  endfacet
  facet normal -0.669131 0.743145 0
    outer loop
      vertex -1.83432 1.77138 4.5
      vertex -1.56994 2.00943 0
      vertex -1.83432 1.77138 0
    endloop
  endfacet
  facet normal -0.438369 0.898795 0
    outer loop
      vertex -0.955246 2.36432 0
      vertex -1.275 2.20836 4.5
      vertex -0.955246 2.36432 4.5
    endloop
  endfacet
  facet normal -0.438369 0.898795 0
    outer loop
      vertex -1.275 2.20836 4.5
      vertex -0.955246 2.36432 0
      vertex -1.275 2.20836 0
    endloop
  endfacet
  facet normal 0.882948 0.469471 0
    outer loop
      vertex 2.32954 1.03718 4.5
      vertex 2.16252 1.35129 0
      vertex 2.16252 1.35129 4.5
    endloop
  endfacet
  facet normal 0.882948 0.469471 0
    outer loop
      vertex 2.16252 1.35129 0
      vertex 2.32954 1.03718 4.5
      vertex 2.32954 1.03718 0
    endloop
  endfacet
  facet normal 0.978148 0.207911 0
    outer loop
      vertex 2.52518 0.354891 4.5
      vertex 2.45122 0.702875 0
      vertex 2.45122 0.702875 4.5
    endloop
  endfacet
  facet normal 0.978148 0.207911 0
    outer loop
      vertex 2.45122 0.702875 0
      vertex 2.52518 0.354891 4.5
      vertex 2.52518 0.354891 0
    endloop
  endfacet
  facet normal 0.809017 0.587785 0
    outer loop
      vertex 2.16252 1.35129 4.5
      vertex 1.95341 1.63911 0
      vertex 1.95341 1.63911 4.5
    endloop
  endfacet
  facet normal 0.809017 0.587785 0
    outer loop
      vertex 1.95341 1.63911 0
      vertex 2.16252 1.35129 4.5
      vertex 2.16252 1.35129 0
    endloop
  endfacet
  facet normal 0.374607 0.927184 -0
    outer loop
      vertex 1.11785 2.29192 0
      vertex 0.787992 2.42519 4.5
      vertex 1.11785 2.29192 4.5
    endloop
  endfacet
  facet normal 0.374607 0.927184 0
    outer loop
      vertex 0.787992 2.42519 4.5
      vertex 1.11785 2.29192 0
      vertex 0.787992 2.42519 0
    endloop
  endfacet
  facet normal 0.241921 0.970296 -0
    outer loop
      vertex 0.787992 2.42519 0
      vertex 0.442802 2.51126 4.5
      vertex 0.787992 2.42519 4.5
    endloop
  endfacet
  facet normal 0.241921 0.970296 0
    outer loop
      vertex 0.442802 2.51126 4.5
      vertex 0.787992 2.42519 0
      vertex 0.442802 2.51126 0
    endloop
  endfacet
  facet normal 0.5 0.866025 -0
    outer loop
      vertex 1.42594 2.11405 0
      vertex 1.11785 2.29192 4.5
      vertex 1.42594 2.11405 4.5
    endloop
  endfacet
  facet normal 0.5 0.866025 0
    outer loop
      vertex 1.11785 2.29192 4.5
      vertex 1.42594 2.11405 0
      vertex 1.11785 2.29192 0
    endloop
  endfacet
  facet normal -0.913546 0.406734 0
    outer loop
      vertex -2.39622 0.87215 0
      vertex -2.25152 1.19715 4.5
      vertex -2.25152 1.19715 0
    endloop
  endfacet
  facet normal -0.913546 0.406734 0
    outer loop
      vertex -2.25152 1.19715 4.5
      vertex -2.39622 0.87215 0
      vertex -2.39622 0.87215 4.5
    endloop
  endfacet
  facet normal -0.848048 0.52992 0
    outer loop
      vertex -2.25152 1.19715 0
      vertex -2.06299 1.49885 4.5
      vertex -2.06299 1.49885 0
    endloop
  endfacet
  facet normal -0.848048 0.52992 0
    outer loop
      vertex -2.06299 1.49885 4.5
      vertex -2.25152 1.19715 0
      vertex -2.25152 1.19715 4.5
    endloop
  endfacet
  facet normal -0.961261 0.275639 0
    outer loop
      vertex -2.49428 0.530174 0
      vertex -2.39622 0.87215 4.5
      vertex -2.39622 0.87215 0
    endloop
  endfacet
  facet normal -0.961261 0.275639 0
    outer loop
      vertex -2.39622 0.87215 4.5
      vertex -2.49428 0.530174 0
      vertex -2.49428 0.530174 4.5
    endloop
  endfacet
  facet normal -0.559193 0.829038 0
    outer loop
      vertex -1.275 2.20836 0
      vertex -1.56994 2.00943 4.5
      vertex -1.275 2.20836 4.5
    endloop
  endfacet
  facet normal -0.559193 0.829038 0
    outer loop
      vertex -1.56994 2.00943 4.5
      vertex -1.275 2.20836 0
      vertex -1.56994 2.00943 0
    endloop
  endfacet
  facet normal -0.173649 0.984808 0
    outer loop
      vertex -0.266547 2.53603 0
      vertex -0.6169 2.47425 4.5
      vertex -0.266547 2.53603 4.5
    endloop
  endfacet
  facet normal -0.173649 0.984808 0
    outer loop
      vertex -0.6169 2.47425 4.5
      vertex -0.266547 2.53603 0
      vertex -0.6169 2.47425 0
    endloop
  endfacet
  facet normal 0.978148 -0.207911 0
    outer loop
      vertex 2.45122 -0.702875 4.5
      vertex 2.52518 -0.354891 0
      vertex 2.52518 -0.354891 4.5
    endloop
  endfacet
  facet normal 0.978148 -0.207911 0
    outer loop
      vertex 2.52518 -0.354891 0
      vertex 2.45122 -0.702875 4.5
      vertex 2.45122 -0.702875 0
    endloop
  endfacet
  facet normal 0 0 -1
    outer loop
      vertex 1.825 0 0
      vertex 2.55 0 0
      vertex 2.52518 -0.354891 0
    endloop
  endfacet
  facet normal 0 0 -1
    outer loop
      vertex 1.80724 -0.25399 0
      vertex 2.52518 -0.354891 0
      vertex 2.45122 -0.702875 0
    endloop
  endfacet
  facet normal 0 0 -1
    outer loop
      vertex 2.55 0 0
      vertex 1.825 0 0
      vertex 2.52518 0.354891 0
    endloop
  endfacet
  facet normal 0 0 -1
    outer loop
      vertex 1.7543 -0.503037 0
      vertex 2.45122 -0.702875 0
      vertex 2.32954 -1.03718 0
    endloop
  endfacet
  facet normal 0 0 -1
    outer loop
      vertex 1.80724 0.25399 0
      vertex 2.52518 0.354891 0
      vertex 1.825 0 0
    endloop
  endfacet
  facet normal 0 0 -1
    outer loop
      vertex 1.66722 -0.742294 0
      vertex 2.32954 -1.03718 0
      vertex 2.16252 -1.35129 0
    endloop
  endfacet
  facet normal -0 0 -1
    outer loop
      vertex 2.52518 0.354891 0
      vertex 1.80724 0.25399 0
      vertex 2.45122 0.702875 0
    endloop
  endfacet
  facet normal 0 0 -1
    outer loop
      vertex 1.54769 -0.967102 0
      vertex 2.16252 -1.35129 0
      vertex 1.95341 -1.63911 0
    endloop
  endfacet
  facet normal 0 0 -1
    outer loop
      vertex 1.7543 0.503037 0
      vertex 2.45122 0.702875 0
      vertex 1.80724 0.25399 0
    endloop
  endfacet
  facet normal -0 0 -1
    outer loop
      vertex 2.45122 0.702875 0
      vertex 1.7543 0.503037 0
      vertex 2.32954 1.03718 0
    endloop
  endfacet
  facet normal 0 0 -1
    outer loop
      vertex 2.52518 -0.354891 0
      vertex 1.80724 -0.25399 0
      vertex 1.825 0 0
    endloop
  endfacet
  facet normal 0 0 -1
    outer loop
      vertex 2.45122 -0.702875 0
      vertex 1.7543 -0.503037 0
      vertex 1.80724 -0.25399 0
    endloop
  endfacet
  facet normal 0 0 -1
    outer loop
      vertex 1.39803 -1.17309 0
      vertex 1.95341 -1.63911 0
      vertex 1.70628 -1.89502 0
    endloop
  endfacet
  facet normal 0 0 -1
    outer loop
      vertex 2.32954 -1.03718 0
      vertex 1.66722 -0.742294 0
      vertex 1.7543 -0.503037 0
    endloop
  endfacet
  facet normal 0 0 -1
    outer loop
      vertex 2.16252 -1.35129 0
      vertex 1.54769 -0.967102 0
      vertex 1.66722 -0.742294 0
    endloop
  endfacet
  facet normal 0 0 -1
    outer loop
      vertex 1.22116 -1.35624 0
      vertex 1.70628 -1.89502 0
      vertex 1.42594 -2.11405 0
    endloop
  endfacet
  facet normal 0 0 -1
    outer loop
      vertex 1.95341 -1.63911 0
      vertex 1.39803 -1.17309 0
      vertex 1.54769 -0.967102 0
    endloop
  endfacet
  facet normal 0 0 -1
    outer loop
      vertex 1.70628 -1.89502 0
      vertex 1.22116 -1.35624 0
      vertex 1.39803 -1.17309 0
    endloop
  endfacet
  facet normal 0 0 -1
    outer loop
      vertex 1.02053 -1.51299 0
      vertex 1.42594 -2.11405 0
      vertex 1.11785 -2.29192 0
    endloop
  endfacet
  facet normal 0 0 -1
    outer loop
      vertex 1.42594 -2.11405 0
      vertex 1.02053 -1.51299 0
      vertex 1.22116 -1.35624 0
    endloop
  endfacet
  facet normal 0 0 -1
    outer loop
      vertex 1.11785 -2.29192 0
      vertex 0.800027 -1.6403 0
      vertex 1.02053 -1.51299 0
    endloop
  endfacet
  facet normal 0 0 -1
    outer loop
      vertex 0.787992 -2.42519 0
      vertex 0.800027 -1.6403 0
      vertex 1.11785 -2.29192 0
    endloop
  endfacet
  facet normal 0 0 -1
    outer loop
      vertex 0.787992 -2.42519 0
      vertex 0.563955 -1.73568 0
      vertex 0.800027 -1.6403 0
    endloop
  endfacet
  facet normal 0 0 -1
    outer loop
      vertex 0.442802 -2.51126 0
      vertex 0.563955 -1.73568 0
      vertex 0.787992 -2.42519 0
    endloop
  endfacet
  facet normal 0 0 -1
    outer loop
      vertex 0.442802 -2.51126 0
      vertex 0.316908 -1.79727 0
      vertex 0.563955 -1.73568 0
    endloop
  endfacet
  facet normal 0 0 -1
    outer loop
      vertex 0.0889931 -2.54845 0
      vertex 0.316908 -1.79727 0
      vertex 0.442802 -2.51126 0
    endloop
  endfacet
  facet normal 0 0 -1
    outer loop
      vertex 0.0889931 -2.54845 0
      vertex 0.0636911 -1.82389 0
      vertex 0.316908 -1.79727 0
    endloop
  endfacet
  facet normal 0 0 -1
    outer loop
      vertex 0.0889931 -2.54845 0
      vertex -0.190764 -1.815 0
      vertex 0.0636911 -1.82389 0
    endloop
  endfacet
  facet normal 0 0 -1
    outer loop
      vertex -0.266547 -2.53603 0
      vertex -0.190764 -1.815 0
      vertex 0.0889931 -2.54845 0
    endloop
  endfacet
  facet normal 0 0 -1
    outer loop
      vertex -0.266547 -2.53603 0
      vertex -0.441507 -1.77079 0
      vertex -0.190764 -1.815 0
    endloop
  endfacet
  facet normal 0 0 -1
    outer loop
      vertex -0.6169 -2.47425 0
      vertex -0.441507 -1.77079 0
      vertex -0.266547 -2.53603 0
    endloop
  endfacet
  facet normal 0 0 -1
    outer loop
      vertex -0.6169 -2.47425 0
      vertex -0.683657 -1.69211 0
      vertex -0.441507 -1.77079 0
    endloop
  endfacet
  facet normal 0 0 -1
    outer loop
      vertex -0.955246 -2.36432 0
      vertex -0.683657 -1.69211 0
      vertex -0.6169 -2.47425 0
    endloop
  endfacet
  facet normal -0 0 -1
    outer loop
      vertex -0.683657 -1.69211 0
      vertex -0.955246 -2.36432 0
      vertex -0.912499 -1.5805 0
    endloop
  endfacet
  facet normal 0 0 -1
    outer loop
      vertex -1.275 -2.20836 0
      vertex -0.912499 -1.5805 0
      vertex -0.955246 -2.36432 0
    endloop
  endfacet
  facet normal -0 0 -1
    outer loop
      vertex -0.912499 -1.5805 0
      vertex -1.275 -2.20836 0
      vertex -1.12358 -1.43812 0
    endloop
  endfacet
  facet normal 0 0 -1
    outer loop
      vertex -1.56994 -2.00943 0
      vertex -1.12358 -1.43812 0
      vertex -1.275 -2.20836 0
    endloop
  endfacet
  facet normal -0 0 -1
    outer loop
      vertex -1.12358 -1.43812 0
      vertex -1.56994 -2.00943 0
      vertex -1.31279 -1.26775 0
    endloop
  endfacet
  facet normal 0 0 -1
    outer loop
      vertex -1.83432 -1.77138 0
      vertex -1.31279 -1.26775 0
      vertex -1.56994 -2.00943 0
    endloop
  endfacet
  facet normal -0 0 -1
    outer loop
      vertex -1.31279 -1.26775 0
      vertex -1.83432 -1.77138 0
      vertex -1.47646 -1.07271 0
    endloop
  endfacet
  facet normal 0 0 -1
    outer loop
      vertex -2.06299 -1.49885 0
      vertex -1.47646 -1.07271 0
      vertex -1.83432 -1.77138 0
    endloop
  endfacet
  facet normal -0 0 -1
    outer loop
      vertex -1.47646 -1.07271 0
      vertex -2.06299 -1.49885 0
      vertex -1.61138 -0.856785 0
    endloop
  endfacet
  facet normal 0 0 -1
    outer loop
      vertex -2.25152 -1.19715 0
      vertex -1.61138 -0.856785 0
      vertex -2.06299 -1.49885 0
    endloop
  endfacet
  facet normal 0 0 -1
    outer loop
      vertex -2.39622 -0.87215 0
      vertex -1.71494 -0.624187 0
      vertex -2.25152 -1.19715 0
    endloop
  endfacet
  facet normal -0 0 -1
    outer loop
      vertex -1.61138 -0.856785 0
      vertex -2.25152 -1.19715 0
      vertex -1.71494 -0.624187 0
    endloop
  endfacet
  facet normal 0 0 -1
    outer loop
      vertex 1.66722 0.742294 0
      vertex 2.32954 1.03718 0
      vertex 1.7543 0.503037 0
    endloop
  endfacet
  facet normal -0 0 -1
    outer loop
      vertex 2.32954 1.03718 0
      vertex 1.66722 0.742294 0
      vertex 2.16252 1.35129 0
    endloop
  endfacet
  facet normal 0 0 -1
    outer loop
      vertex 1.54769 0.967102 0
      vertex 2.16252 1.35129 0
      vertex 1.66722 0.742294 0
    endloop
  endfacet
  facet normal -0 0 -1
    outer loop
      vertex 2.16252 1.35129 0
      vertex 1.54769 0.967102 0
      vertex 1.95341 1.63911 0
    endloop
  endfacet
  facet normal 0 0 -1
    outer loop
      vertex 1.39803 1.17309 0
      vertex 1.95341 1.63911 0
      vertex 1.54769 0.967102 0
    endloop
  endfacet
  facet normal -0 0 -1
    outer loop
      vertex 1.95341 1.63911 0
      vertex 1.39803 1.17309 0
      vertex 1.70628 1.89502 0
    endloop
  endfacet
  facet normal 0 0 -1
    outer loop
      vertex 1.22116 1.35624 0
      vertex 1.70628 1.89502 0
      vertex 1.39803 1.17309 0
    endloop
  endfacet
  facet normal -0 0 -1
    outer loop
      vertex 1.70628 1.89502 0
      vertex 1.22116 1.35624 0
      vertex 1.42594 2.11405 0
    endloop
  endfacet
  facet normal 0 0 -1
    outer loop
      vertex 1.02053 1.51299 0
      vertex 1.42594 2.11405 0
      vertex 1.22116 1.35624 0
    endloop
  endfacet
  facet normal -0 0 -1
    outer loop
      vertex 1.42594 2.11405 0
      vertex 1.02053 1.51299 0
      vertex 1.11785 2.29192 0
    endloop
  endfacet
  facet normal 0 0 -1
    outer loop
      vertex 0.800027 1.6403 0
      vertex 1.11785 2.29192 0
      vertex 1.02053 1.51299 0
    endloop
  endfacet
  facet normal 0 0 -1
    outer loop
      vertex 0.800027 1.6403 0
      vertex 0.787992 2.42519 0
      vertex 1.11785 2.29192 0
    endloop
  endfacet
  facet normal 0 0 -1
    outer loop
      vertex 0.563955 1.73568 0
      vertex 0.787992 2.42519 0
      vertex 0.800027 1.6403 0
    endloop
  endfacet
  facet normal 0 0 -1
    outer loop
      vertex 0.563955 1.73568 0
      vertex 0.442802 2.51126 0
      vertex 0.787992 2.42519 0
    endloop
  endfacet
  facet normal 0 0 -1
    outer loop
      vertex 0.316908 1.79727 0
      vertex 0.442802 2.51126 0
      vertex 0.563955 1.73568 0
    endloop
  endfacet
  facet normal 0 0 -1
    outer loop
      vertex 0.316908 1.79727 0
      vertex 0.0889931 2.54845 0
      vertex 0.442802 2.51126 0
    endloop
  endfacet
  facet normal 0 0 -1
    outer loop
      vertex 0.0636911 1.82389 0
      vertex 0.0889931 2.54845 0
      vertex 0.316908 1.79727 0
    endloop
  endfacet
  facet normal 0 0 -1
    outer loop
      vertex -0.190764 1.815 0
      vertex 0.0889931 2.54845 0
      vertex 0.0636911 1.82389 0
    endloop
  endfacet
  facet normal 0 0 -1
    outer loop
      vertex -0.190764 1.815 0
      vertex -0.266547 2.53603 0
      vertex 0.0889931 2.54845 0
    endloop
  endfacet
  facet normal 0 0 -1
    outer loop
      vertex -0.441507 1.77079 0
      vertex -0.266547 2.53603 0
      vertex -0.190764 1.815 0
    endloop
  endfacet
  facet normal 0 0 -1
    outer loop
      vertex -0.441507 1.77079 0
      vertex -0.6169 2.47425 0
      vertex -0.266547 2.53603 0
    endloop
  endfacet
  facet normal 0 0 -1
    outer loop
      vertex -0.683657 1.69211 0
      vertex -0.6169 2.47425 0
      vertex -0.441507 1.77079 0
    endloop
  endfacet
  facet normal 0 0 -1
    outer loop
      vertex -0.955246 2.36432 0
      vertex -0.683657 1.69211 0
      vertex -0.912499 1.5805 0
    endloop
  endfacet
  facet normal 0 0 -1
    outer loop
      vertex -0.683657 1.69211 0
      vertex -0.955246 2.36432 0
      vertex -0.6169 2.47425 0
    endloop
  endfacet
  facet normal 0 0 -1
    outer loop
      vertex -1.275 2.20836 0
      vertex -0.912499 1.5805 0
      vertex -1.12358 1.43812 0
    endloop
  endfacet
  facet normal 0 0 -1
    outer loop
      vertex -0.912499 1.5805 0
      vertex -1.275 2.20836 0
      vertex -0.955246 2.36432 0
    endloop
  endfacet
  facet normal 0 0 -1
    outer loop
      vertex -1.56994 2.00943 0
      vertex -1.12358 1.43812 0
      vertex -1.31279 1.26775 0
    endloop
  endfacet
  facet normal 0 0 -1
    outer loop
      vertex -1.83432 1.77138 0
      vertex -1.31279 1.26775 0
      vertex -1.47646 1.07271 0
    endloop
  endfacet
  facet normal 0 0 -1
    outer loop
      vertex -1.12358 1.43812 0
      vertex -1.56994 2.00943 0
      vertex -1.275 2.20836 0
    endloop
  endfacet
  facet normal 0 0 -1
    outer loop
      vertex -2.06299 1.49885 0
      vertex -1.47646 1.07271 0
      vertex -1.61138 0.856785 0
    endloop
  endfacet
  facet normal 0 0 -1
    outer loop
      vertex -2.25152 1.19715 0
      vertex -1.61138 0.856785 0
      vertex -1.71494 0.624187 0
    endloop
  endfacet
  facet normal 0 0 -1
    outer loop
      vertex -2.39622 0.87215 0
      vertex -1.71494 0.624187 0
      vertex -1.78512 0.379438 0
    endloop
  endfacet
  facet normal 0 0 -1
    outer loop
      vertex -2.49428 0.530174 0
      vertex -1.78512 0.379438 0
      vertex -1.82055 0.127305 0
    endloop
  endfacet
  facet normal 0 0 -1
    outer loop
      vertex -1.31279 1.26775 0
      vertex -1.83432 1.77138 0
      vertex -1.56994 2.00943 0
    endloop
  endfacet
  facet normal -0 0 -1
    outer loop
      vertex -1.71494 -0.624187 0
      vertex -2.39622 -0.87215 0
      vertex -1.78512 -0.379438 0
    endloop
  endfacet
  facet normal 0 0 -1
    outer loop
      vertex -2.49428 -0.530174 0
      vertex -1.78512 -0.379438 0
      vertex -2.39622 -0.87215 0
    endloop
  endfacet
  facet normal 0 0 -1
    outer loop
      vertex -1.47646 1.07271 0
      vertex -2.06299 1.49885 0
      vertex -1.83432 1.77138 0
    endloop
  endfacet
  facet normal -0 0 -1
    outer loop
      vertex -1.78512 -0.379438 0
      vertex -2.49428 -0.530174 0
      vertex -1.82055 -0.127305 0
    endloop
  endfacet
  facet normal 0 0 -1
    outer loop
      vertex -1.61138 0.856785 0
      vertex -2.25152 1.19715 0
      vertex -2.06299 1.49885 0
    endloop
  endfacet
  facet normal 0 0 -1
    outer loop
      vertex -2.54379 -0.177878 0
      vertex -1.82055 -0.127305 0
      vertex -2.49428 -0.530174 0
    endloop
  endfacet
  facet normal 0 0 -1
    outer loop
      vertex -1.71494 0.624187 0
      vertex -2.39622 0.87215 0
      vertex -2.25152 1.19715 0
    endloop
  endfacet
  facet normal -0 0 -1
    outer loop
      vertex -1.82055 -0.127305 0
      vertex -2.54379 -0.177878 0
      vertex -1.82055 0.127305 0
    endloop
  endfacet
  facet normal 0 0 -1
    outer loop
      vertex -1.78512 0.379438 0
      vertex -2.49428 0.530174 0
      vertex -2.39622 0.87215 0
    endloop
  endfacet
  facet normal 0 0 -1
    outer loop
      vertex -2.54379 0.177878 0
      vertex -1.82055 0.127305 0
      vertex -2.54379 -0.177878 0
    endloop
  endfacet
  facet normal 0 0 -1
    outer loop
      vertex -1.82055 0.127305 0
      vertex -2.54379 0.177878 0
      vertex -2.49428 0.530174 0
    endloop
  endfacet
  facet normal 0.241921 -0.970296 0
    outer loop
      vertex 0.442802 -2.51126 0
      vertex 0.787992 -2.42519 4.5
      vertex 0.442802 -2.51126 4.5
    endloop
  endfacet
  facet normal 0.241921 -0.970296 0
    outer loop
      vertex 0.787992 -2.42519 4.5
      vertex 0.442802 -2.51126 0
      vertex 0.787992 -2.42519 0
    endloop
  endfacet
  facet normal 0.939692 0.34202 0
    outer loop
      vertex 2.45122 0.702875 4.5
      vertex 2.32954 1.03718 0
      vertex 2.32954 1.03718 4.5
    endloop
  endfacet
  facet normal 0.939692 0.34202 0
    outer loop
      vertex 2.32954 1.03718 0
      vertex 2.45122 0.702875 4.5
      vertex 2.45122 0.702875 0
    endloop
  endfacet
  facet normal 0.104528 0.994522 -0
    outer loop
      vertex 0.442802 2.51126 0
      vertex 0.0889931 2.54845 4.5
      vertex 0.442802 2.51126 4.5
    endloop
  endfacet
  facet normal 0.104528 0.994522 0
    outer loop
      vertex 0.0889931 2.54845 4.5
      vertex 0.442802 2.51126 0
      vertex 0.0889931 2.54845 0
    endloop
  endfacet
  facet normal 0.615662 0.788011 -0
    outer loop
      vertex 1.70628 1.89502 0
      vertex 1.42594 2.11405 4.5
      vertex 1.70628 1.89502 4.5
    endloop
  endfacet
  facet normal 0.615662 0.788011 0
    outer loop
      vertex 1.42594 2.11405 4.5
      vertex 1.70628 1.89502 0
      vertex 1.42594 2.11405 0
    endloop
  endfacet
  facet normal -0.990268 0.139173 0
    outer loop
      vertex -2.54379 0.177878 0
      vertex -2.49428 0.530174 4.5
      vertex -2.49428 0.530174 0
    endloop
  endfacet
  facet normal -0.990268 0.139173 0
    outer loop
      vertex -2.49428 0.530174 4.5
      vertex -2.54379 0.177878 0
      vertex -2.54379 0.177878 4.5
    endloop
  endfacet
  facet normal 0 0 1
    outer loop
      vertex 1.825 0 4.5
      vertex 2.55 0 4.5
      vertex 2.52518 0.354891 4.5
    endloop
  endfacet
  facet normal 0 0 1
    outer loop
      vertex 1.80724 0.25399 4.5
      vertex 2.52518 0.354891 4.5
      vertex 2.45122 0.702875 4.5
    endloop
  endfacet
  facet normal 0 0 1
    outer loop
      vertex 2.55 0 4.5
      vertex 1.825 0 4.5
      vertex 2.52518 -0.354891 4.5
    endloop
  endfacet
  facet normal 0 0 1
    outer loop
      vertex 1.7543 0.503037 4.5
      vertex 2.45122 0.702875 4.5
      vertex 2.32954 1.03718 4.5
    endloop
  endfacet
  facet normal -0 0 1
    outer loop
      vertex 1.80724 -0.25399 4.5
      vertex 2.52518 -0.354891 4.5
      vertex 1.825 0 4.5
    endloop
  endfacet
  facet normal 0 0 1
    outer loop
      vertex 1.66722 0.742294 4.5
      vertex 2.32954 1.03718 4.5
      vertex 2.16252 1.35129 4.5
    endloop
  endfacet
  facet normal 0 0 1
    outer loop
      vertex 2.52518 -0.354891 4.5
      vertex 1.80724 -0.25399 4.5
      vertex 2.45122 -0.702875 4.5
    endloop
  endfacet
  facet normal 0 0 1
    outer loop
      vertex 1.54769 0.967102 4.5
      vertex 2.16252 1.35129 4.5
      vertex 1.95341 1.63911 4.5
    endloop
  endfacet
  facet normal -0 0 1
    outer loop
      vertex 1.7543 -0.503037 4.5
      vertex 2.45122 -0.702875 4.5
      vertex 1.80724 -0.25399 4.5
    endloop
  endfacet
  facet normal 0 0 1
    outer loop
      vertex 2.45122 -0.702875 4.5
      vertex 1.7543 -0.503037 4.5
      vertex 2.32954 -1.03718 4.5
    endloop
  endfacet
  facet normal 0 0 1
    outer loop
      vertex 2.52518 0.354891 4.5
      vertex 1.80724 0.25399 4.5
      vertex 1.825 0 4.5
    endloop
  endfacet
  facet normal 0 0 1
    outer loop
      vertex 2.45122 0.702875 4.5
      vertex 1.7543 0.503037 4.5
      vertex 1.80724 0.25399 4.5
    endloop
  endfacet
  facet normal 0 0 1
    outer loop
      vertex 1.39803 1.17309 4.5
      vertex 1.95341 1.63911 4.5
      vertex 1.70628 1.89502 4.5
    endloop
  endfacet
  facet normal 0 0 1
    outer loop
      vertex 2.32954 1.03718 4.5
      vertex 1.66722 0.742294 4.5
      vertex 1.7543 0.503037 4.5
    endloop
  endfacet
  facet normal 0 0 1
    outer loop
      vertex 2.16252 1.35129 4.5
      vertex 1.54769 0.967102 4.5
      vertex 1.66722 0.742294 4.5
    endloop
  endfacet
  facet normal 0 0 1
    outer loop
      vertex 1.22116 1.35624 4.5
      vertex 1.70628 1.89502 4.5
      vertex 1.42594 2.11405 4.5
    endloop
  endfacet
  facet normal 0 0 1
    outer loop
      vertex 1.95341 1.63911 4.5
      vertex 1.39803 1.17309 4.5
      vertex 1.54769 0.967102 4.5
    endloop
  endfacet
  facet normal 0 0 1
    outer loop
      vertex 1.70628 1.89502 4.5
      vertex 1.22116 1.35624 4.5
      vertex 1.39803 1.17309 4.5
    endloop
  endfacet
  facet normal 0 0 1
    outer loop
      vertex 1.02053 1.51299 4.5
      vertex 1.42594 2.11405 4.5
      vertex 1.11785 2.29192 4.5
    endloop
  endfacet
  facet normal 0 0 1
    outer loop
      vertex 1.42594 2.11405 4.5
      vertex 1.02053 1.51299 4.5
      vertex 1.22116 1.35624 4.5
    endloop
  endfacet
  facet normal 0 0 1
    outer loop
      vertex 1.11785 2.29192 4.5
      vertex 0.800027 1.6403 4.5
      vertex 1.02053 1.51299 4.5
    endloop
  endfacet
  facet normal 0 0 1
    outer loop
      vertex 0.787992 2.42519 4.5
      vertex 0.800027 1.6403 4.5
      vertex 1.11785 2.29192 4.5
    endloop
  endfacet
  facet normal 0 0 1
    outer loop
      vertex 0.787992 2.42519 4.5
      vertex 0.563955 1.73568 4.5
      vertex 0.800027 1.6403 4.5
    endloop
  endfacet
  facet normal 0 0 1
    outer loop
      vertex 0.442802 2.51126 4.5
      vertex 0.563955 1.73568 4.5
      vertex 0.787992 2.42519 4.5
    endloop
  endfacet
  facet normal 0 0 1
    outer loop
      vertex 0.442802 2.51126 4.5
      vertex 0.316908 1.79727 4.5
      vertex 0.563955 1.73568 4.5
    endloop
  endfacet
  facet normal 0 0 1
    outer loop
      vertex 0.0889931 2.54845 4.5
      vertex 0.316908 1.79727 4.5
      vertex 0.442802 2.51126 4.5
    endloop
  endfacet
  facet normal 0 0 1
    outer loop
      vertex 0.0889931 2.54845 4.5
      vertex 0.0636911 1.82389 4.5
      vertex 0.316908 1.79727 4.5
    endloop
  endfacet
  facet normal 0 0 1
    outer loop
      vertex 0.0889931 2.54845 4.5
      vertex -0.190764 1.815 4.5
      vertex 0.0636911 1.82389 4.5
    endloop
  endfacet
  facet normal -0 0 1
    outer loop
      vertex -0.266547 2.53603 4.5
      vertex -0.190764 1.815 4.5
      vertex 0.0889931 2.54845 4.5
    endloop
  endfacet
  facet normal 0 0 1
    outer loop
      vertex -0.266547 2.53603 4.5
      vertex -0.441507 1.77079 4.5
      vertex -0.190764 1.815 4.5
    endloop
  endfacet
  facet normal -0 0 1
    outer loop
      vertex -0.6169 2.47425 4.5
      vertex -0.441507 1.77079 4.5
      vertex -0.266547 2.53603 4.5
    endloop
  endfacet
  facet normal 0 0 1
    outer loop
      vertex -0.6169 2.47425 4.5
      vertex -0.683657 1.69211 4.5
      vertex -0.441507 1.77079 4.5
    endloop
  endfacet
  facet normal -0 0 1
    outer loop
      vertex -0.955246 2.36432 4.5
      vertex -0.683657 1.69211 4.5
      vertex -0.6169 2.47425 4.5
    endloop
  endfacet
  facet normal 0 0 1
    outer loop
      vertex -0.683657 1.69211 4.5
      vertex -0.955246 2.36432 4.5
      vertex -0.912499 1.5805 4.5
    endloop
  endfacet
  facet normal -0 0 1
    outer loop
      vertex -1.275 2.20836 4.5
      vertex -0.912499 1.5805 4.5
      vertex -0.955246 2.36432 4.5
    endloop
  endfacet
  facet normal 0 0 1
    outer loop
      vertex -0.912499 1.5805 4.5
      vertex -1.275 2.20836 4.5
      vertex -1.12358 1.43812 4.5
    endloop
  endfacet
  facet normal -0 0 1
    outer loop
      vertex -1.56994 2.00943 4.5
      vertex -1.12358 1.43812 4.5
      vertex -1.275 2.20836 4.5
    endloop
  endfacet
  facet normal 0 0 1
    outer loop
      vertex -1.12358 1.43812 4.5
      vertex -1.56994 2.00943 4.5
      vertex -1.31279 1.26775 4.5
    endloop
  endfacet
  facet normal -0 0 1
    outer loop
      vertex -1.83432 1.77138 4.5
      vertex -1.31279 1.26775 4.5
      vertex -1.56994 2.00943 4.5
    endloop
  endfacet
  facet normal 0 0 1
    outer loop
      vertex -1.31279 1.26775 4.5
      vertex -1.83432 1.77138 4.5
      vertex -1.47646 1.07271 4.5
    endloop
  endfacet
  facet normal -0 0 1
    outer loop
      vertex -2.06299 1.49885 4.5
      vertex -1.47646 1.07271 4.5
      vertex -1.83432 1.77138 4.5
    endloop
  endfacet
  facet normal 0 0 1
    outer loop
      vertex -1.47646 1.07271 4.5
      vertex -2.06299 1.49885 4.5
      vertex -1.61138 0.856785 4.5
    endloop
  endfacet
  facet normal -0 0 1
    outer loop
      vertex -2.25152 1.19715 4.5
      vertex -1.61138 0.856785 4.5
      vertex -2.06299 1.49885 4.5
    endloop
  endfacet
  facet normal -0 0 1
    outer loop
      vertex -2.39622 0.87215 4.5
      vertex -1.71494 0.624187 4.5
      vertex -2.25152 1.19715 4.5
    endloop
  endfacet
  facet normal 0 0 1
    outer loop
      vertex -1.61138 0.856785 4.5
      vertex -2.25152 1.19715 4.5
      vertex -1.71494 0.624187 4.5
    endloop
  endfacet
  facet normal -0 0 1
    outer loop
      vertex 1.66722 -0.742294 4.5
      vertex 2.32954 -1.03718 4.5
      vertex 1.7543 -0.503037 4.5
    endloop
  endfacet
  facet normal 0 0 1
    outer loop
      vertex 2.32954 -1.03718 4.5
      vertex 1.66722 -0.742294 4.5
      vertex 2.16252 -1.35129 4.5
    endloop
  endfacet
  facet normal -0 0 1
    outer loop
      vertex 1.54769 -0.967102 4.5
      vertex 2.16252 -1.35129 4.5
      vertex 1.66722 -0.742294 4.5
    endloop
  endfacet
  facet normal 0 0 1
    outer loop
      vertex 2.16252 -1.35129 4.5
      vertex 1.54769 -0.967102 4.5
      vertex 1.95341 -1.63911 4.5
    endloop
  endfacet
  facet normal -0 0 1
    outer loop
      vertex 1.39803 -1.17309 4.5
      vertex 1.95341 -1.63911 4.5
      vertex 1.54769 -0.967102 4.5
    endloop
  endfacet
  facet normal 0 0 1
    outer loop
      vertex 1.95341 -1.63911 4.5
      vertex 1.39803 -1.17309 4.5
      vertex 1.70628 -1.89502 4.5
    endloop
  endfacet
  facet normal -0 0 1
    outer loop
      vertex 1.22116 -1.35624 4.5
      vertex 1.70628 -1.89502 4.5
      vertex 1.39803 -1.17309 4.5
    endloop
  endfacet
  facet normal 0 0 1
    outer loop
      vertex 1.70628 -1.89502 4.5
      vertex 1.22116 -1.35624 4.5
      vertex 1.42594 -2.11405 4.5
    endloop
  endfacet
  facet normal -0 0 1
    outer loop
      vertex 1.02053 -1.51299 4.5
      vertex 1.42594 -2.11405 4.5
      vertex 1.22116 -1.35624 4.5
    endloop
  endfacet
  facet normal 0 0 1
    outer loop
      vertex 1.42594 -2.11405 4.5
      vertex 1.02053 -1.51299 4.5
      vertex 1.11785 -2.29192 4.5
    endloop
  endfacet
  facet normal -0 0 1
    outer loop
      vertex 0.800027 -1.6403 4.5
      vertex 1.11785 -2.29192 4.5
      vertex 1.02053 -1.51299 4.5
    endloop
  endfacet
  facet normal 0 0 1
    outer loop
      vertex 0.800027 -1.6403 4.5
      vertex 0.787992 -2.42519 4.5
      vertex 1.11785 -2.29192 4.5
    endloop
  endfacet
  facet normal -0 0 1
    outer loop
      vertex 0.563955 -1.73568 4.5
      vertex 0.787992 -2.42519 4.5
      vertex 0.800027 -1.6403 4.5
    endloop
  endfacet
  facet normal 0 0 1
    outer loop
      vertex 0.563955 -1.73568 4.5
      vertex 0.442802 -2.51126 4.5
      vertex 0.787992 -2.42519 4.5
    endloop
  endfacet
  facet normal -0 0 1
    outer loop
      vertex 0.316908 -1.79727 4.5
      vertex 0.442802 -2.51126 4.5
      vertex 0.563955 -1.73568 4.5
    endloop
  endfacet
  facet normal 0 0 1
    outer loop
      vertex 0.316908 -1.79727 4.5
      vertex 0.0889931 -2.54845 4.5
      vertex 0.442802 -2.51126 4.5
    endloop
  endfacet
  facet normal -0 0 1
    outer loop
      vertex 0.0636911 -1.82389 4.5
      vertex 0.0889931 -2.54845 4.5
      vertex 0.316908 -1.79727 4.5
    endloop
  endfacet
  facet normal 0 0 1
    outer loop
      vertex -0.190764 -1.815 4.5
      vertex 0.0889931 -2.54845 4.5
      vertex 0.0636911 -1.82389 4.5
    endloop
  endfacet
  facet normal 0 0 1
    outer loop
      vertex -0.190764 -1.815 4.5
      vertex -0.266547 -2.53603 4.5
      vertex 0.0889931 -2.54845 4.5
    endloop
  endfacet
  facet normal 0 0 1
    outer loop
      vertex -0.441507 -1.77079 4.5
      vertex -0.266547 -2.53603 4.5
      vertex -0.190764 -1.815 4.5
    endloop
  endfacet
  facet normal 0 0 1
    outer loop
      vertex -0.441507 -1.77079 4.5
      vertex -0.6169 -2.47425 4.5
      vertex -0.266547 -2.53603 4.5
    endloop
  endfacet
  facet normal 0 0 1
    outer loop
      vertex -0.683657 -1.69211 4.5
      vertex -0.6169 -2.47425 4.5
      vertex -0.441507 -1.77079 4.5
    endloop
  endfacet
  facet normal 0 0 1
    outer loop
      vertex -0.955246 -2.36432 4.5
      vertex -0.683657 -1.69211 4.5
      vertex -0.912499 -1.5805 4.5
    endloop
  endfacet
  facet normal 0 0 1
    outer loop
      vertex -0.683657 -1.69211 4.5
      vertex -0.955246 -2.36432 4.5
      vertex -0.6169 -2.47425 4.5
    endloop
  endfacet
  facet normal 0 0 1
    outer loop
      vertex -1.275 -2.20836 4.5
      vertex -0.912499 -1.5805 4.5
      vertex -1.12358 -1.43812 4.5
    endloop
  endfacet
  facet normal 0 0 1
    outer loop
      vertex -0.912499 -1.5805 4.5
      vertex -1.275 -2.20836 4.5
      vertex -0.955246 -2.36432 4.5
    endloop
  endfacet
  facet normal 0 0 1
    outer loop
      vertex -1.56994 -2.00943 4.5
      vertex -1.12358 -1.43812 4.5
      vertex -1.31279 -1.26775 4.5
    endloop
  endfacet
  facet normal 0 0 1
    outer loop
      vertex -1.83432 -1.77138 4.5
      vertex -1.31279 -1.26775 4.5
      vertex -1.47646 -1.07271 4.5
    endloop
  endfacet
  facet normal 0 0 1
    outer loop
      vertex -1.12358 -1.43812 4.5
      vertex -1.56994 -2.00943 4.5
      vertex -1.275 -2.20836 4.5
    endloop
  endfacet
  facet normal 0 0 1
    outer loop
      vertex -2.06299 -1.49885 4.5
      vertex -1.47646 -1.07271 4.5
      vertex -1.61138 -0.856785 4.5
    endloop
  endfacet
  facet normal 0 0 1
    outer loop
      vertex -2.25152 -1.19715 4.5
      vertex -1.61138 -0.856785 4.5
      vertex -1.71494 -0.624187 4.5
    endloop
  endfacet
  facet normal 0 0 1
    outer loop
      vertex -2.39622 -0.87215 4.5
      vertex -1.71494 -0.624187 4.5
      vertex -1.78512 -0.379438 4.5
    endloop
  endfacet
  facet normal 0 0 1
    outer loop
      vertex -2.49428 -0.530174 4.5
      vertex -1.78512 -0.379438 4.5
      vertex -1.82055 -0.127305 4.5
    endloop
  endfacet
  facet normal 0 0 1
    outer loop
      vertex -1.31279 -1.26775 4.5
      vertex -1.83432 -1.77138 4.5
      vertex -1.56994 -2.00943 4.5
    endloop
  endfacet
  facet normal 0 0 1
    outer loop
      vertex -1.71494 0.624187 4.5
      vertex -2.39622 0.87215 4.5
      vertex -1.78512 0.379438 4.5
    endloop
  endfacet
  facet normal -0 0 1
    outer loop
      vertex -2.49428 0.530174 4.5
      vertex -1.78512 0.379438 4.5
      vertex -2.39622 0.87215 4.5
    endloop
  endfacet
  facet normal 0 0 1
    outer loop
      vertex -1.47646 -1.07271 4.5
      vertex -2.06299 -1.49885 4.5
      vertex -1.83432 -1.77138 4.5
    endloop
  endfacet
  facet normal 0 0 1
    outer loop
      vertex -1.78512 0.379438 4.5
      vertex -2.49428 0.530174 4.5
      vertex -1.82055 0.127305 4.5
    endloop
  endfacet
  facet normal 0 0 1
    outer loop
      vertex -1.61138 -0.856785 4.5
      vertex -2.25152 -1.19715 4.5
      vertex -2.06299 -1.49885 4.5
    endloop
  endfacet
  facet normal -0 0 1
    outer loop
      vertex -2.54379 0.177878 4.5
      vertex -1.82055 0.127305 4.5
      vertex -2.49428 0.530174 4.5
    endloop
  endfacet
  facet normal 0 0 1
    outer loop
      vertex -1.71494 -0.624187 4.5
      vertex -2.39622 -0.87215 4.5
      vertex -2.25152 -1.19715 4.5
    endloop
  endfacet
  facet normal 0 0 1
    outer loop
      vertex -1.82055 0.127305 4.5
      vertex -2.54379 0.177878 4.5
      vertex -1.82055 -0.127305 4.5
    endloop
  endfacet
  facet normal 0 0 1
    outer loop
      vertex -1.78512 -0.379438 4.5
      vertex -2.49428 -0.530174 4.5
      vertex -2.39622 -0.87215 4.5
    endloop
  endfacet
  facet normal 0 0 1
    outer loop
      vertex -2.54379 -0.177878 4.5
      vertex -1.82055 -0.127305 4.5
      vertex -2.54379 0.177878 4.5
    endloop
  endfacet
  facet normal 0 0 1
    outer loop
      vertex -1.82055 -0.127305 4.5
      vertex -2.54379 -0.177878 4.5
      vertex -2.49428 -0.530174 4.5
    endloop
  endfacet
  facet normal -0.309019 0.951056 0
    outer loop
      vertex -0.6169 2.47425 0
      vertex -0.955246 2.36432 4.5
      vertex -0.6169 2.47425 4.5
    endloop
  endfacet
  facet normal -0.309019 0.951056 0
    outer loop
      vertex -0.955246 2.36432 4.5
      vertex -0.6169 2.47425 0
      vertex -0.955246 2.36432 0
    endloop
  endfacet
  facet normal 0.882948 -0.469471 0
    outer loop
      vertex 2.16252 -1.35129 4.5
      vertex 2.32954 -1.03718 0
      vertex 2.32954 -1.03718 4.5
    endloop
  endfacet
  facet normal 0.882948 -0.469471 0
    outer loop
      vertex 2.32954 -1.03718 0
      vertex 2.16252 -1.35129 4.5
      vertex 2.16252 -1.35129 0
    endloop
  endfacet
  facet normal -0.990268 -0.139173 0
    outer loop
      vertex -2.49428 -0.530174 0
      vertex -2.54379 -0.177878 4.5
      vertex -2.54379 -0.177878 0
    endloop
  endfacet
  facet normal -0.990268 -0.139173 0
    outer loop
      vertex -2.54379 -0.177878 4.5
      vertex -2.49428 -0.530174 0
      vertex -2.49428 -0.530174 4.5
    endloop
  endfacet
  facet normal 0.5 -0.866025 0
    outer loop
      vertex 1.11785 -2.29192 0
      vertex 1.42594 -2.11405 4.5
      vertex 1.11785 -2.29192 4.5
    endloop
  endfacet
  facet normal 0.5 -0.866025 0
    outer loop
      vertex 1.42594 -2.11405 4.5
      vertex 1.11785 -2.29192 0
      vertex 1.42594 -2.11405 0
    endloop
  endfacet
  facet normal -0.766045 0.642787 0
    outer loop
      vertex -2.06299 1.49885 0
      vertex -1.83432 1.77138 4.5
      vertex -1.83432 1.77138 0
    endloop
  endfacet
  facet normal -0.766045 0.642787 0
    outer loop
      vertex -1.83432 1.77138 4.5
      vertex -2.06299 1.49885 0
      vertex -2.06299 1.49885 4.5
    endloop
  endfacet
  facet normal 0.997564 -0.0697568 0
    outer loop
      vertex 2.52518 -0.354891 4.5
      vertex 2.55 0 0
      vertex 2.55 0 4.5
    endloop
  endfacet
  facet normal 0.997564 -0.0697568 0
    outer loop
      vertex 2.55 0 0
      vertex 2.52518 -0.354891 4.5
      vertex 2.52518 -0.354891 0
    endloop
  endfacet
  facet normal 0.939692 -0.34202 0
    outer loop
      vertex 2.32954 -1.03718 4.5
      vertex 2.45122 -0.702875 0
      vertex 2.45122 -0.702875 4.5
    endloop
  endfacet
  facet normal 0.939692 -0.34202 0
    outer loop
      vertex 2.45122 -0.702875 0
      vertex 2.32954 -1.03718 4.5
      vertex 2.32954 -1.03718 0
    endloop
  endfacet
  facet normal -0.173649 -0.984808 0
    outer loop
      vertex -0.6169 -2.47425 0
      vertex -0.266547 -2.53603 4.5
      vertex -0.6169 -2.47425 4.5
    endloop
  endfacet
  facet normal -0.173649 -0.984808 -0
    outer loop
      vertex -0.266547 -2.53603 4.5
      vertex -0.6169 -2.47425 0
      vertex -0.266547 -2.53603 0
    endloop
  endfacet
  facet normal -0.559193 -0.829038 0
    outer loop
      vertex -1.56994 -2.00943 0
      vertex -1.275 -2.20836 4.5
      vertex -1.56994 -2.00943 4.5
    endloop
  endfacet
  facet normal -0.559193 -0.829038 -0
    outer loop
      vertex -1.275 -2.20836 4.5
      vertex -1.56994 -2.00943 0
      vertex -1.275 -2.20836 0
    endloop
  endfacet
  facet normal -0.669131 -0.743145 0
    outer loop
      vertex -1.83432 -1.77138 0
      vertex -1.56994 -2.00943 4.5
      vertex -1.83432 -1.77138 4.5
    endloop
  endfacet
  facet normal -0.669131 -0.743145 -0
    outer loop
      vertex -1.56994 -2.00943 4.5
      vertex -1.83432 -1.77138 0
      vertex -1.56994 -2.00943 0
    endloop
  endfacet
  facet normal -0.848048 -0.52992 0
    outer loop
      vertex -2.06299 -1.49885 0
      vertex -2.25152 -1.19715 4.5
      vertex -2.25152 -1.19715 0
    endloop
  endfacet
  facet normal -0.848048 -0.52992 0
    outer loop
      vertex -2.25152 -1.19715 4.5
      vertex -2.06299 -1.49885 0
      vertex -2.06299 -1.49885 4.5
    endloop
  endfacet
  facet normal -0.961261 -0.275639 0
    outer loop
      vertex -2.39622 -0.87215 0
      vertex -2.49428 -0.530174 4.5
      vertex -2.49428 -0.530174 0
    endloop
  endfacet
  facet normal -0.961261 -0.275639 0
    outer loop
      vertex -2.49428 -0.530174 4.5
      vertex -2.39622 -0.87215 0
      vertex -2.39622 -0.87215 4.5
    endloop
  endfacet
  facet normal -0.913546 -0.406734 0
    outer loop
      vertex -2.25152 -1.19715 0
      vertex -2.39622 -0.87215 4.5
      vertex -2.39622 -0.87215 0
    endloop
  endfacet
  facet normal -0.913546 -0.406734 0
    outer loop
      vertex -2.39622 -0.87215 4.5
      vertex -2.25152 -1.19715 0
      vertex -2.25152 -1.19715 4.5
    endloop
  endfacet
  facet normal 0.809017 -0.587785 0
    outer loop
      vertex 1.95341 -1.63911 4.5
      vertex 2.16252 -1.35129 0
      vertex 2.16252 -1.35129 4.5
    endloop
  endfacet
  facet normal 0.809017 -0.587785 0
    outer loop
      vertex 2.16252 -1.35129 0
      vertex 1.95341 -1.63911 4.5
      vertex 1.95341 -1.63911 0
    endloop
  endfacet
  facet normal 0.615662 -0.788011 0
    outer loop
      vertex 1.42594 -2.11405 0
      vertex 1.70628 -1.89502 4.5
      vertex 1.42594 -2.11405 4.5
    endloop
  endfacet
  facet normal 0.615662 -0.788011 0
    outer loop
      vertex 1.70628 -1.89502 4.5
      vertex 1.42594 -2.11405 0
      vertex 1.70628 -1.89502 0
    endloop
  endfacet
  facet normal 0.374607 -0.927184 0
    outer loop
      vertex 0.787992 -2.42519 0
      vertex 1.11785 -2.29192 4.5
      vertex 0.787992 -2.42519 4.5
    endloop
  endfacet
  facet normal 0.374607 -0.927184 0
    outer loop
      vertex 1.11785 -2.29192 4.5
      vertex 0.787992 -2.42519 0
      vertex 1.11785 -2.29192 0
    endloop
  endfacet
  facet normal -0.0348972 -0.999391 0
    outer loop
      vertex -0.266547 -2.53603 0
      vertex 0.0889931 -2.54845 4.5
      vertex -0.266547 -2.53603 4.5
    endloop
  endfacet
  facet normal -0.0348972 -0.999391 -0
    outer loop
      vertex 0.0889931 -2.54845 4.5
      vertex -0.266547 -2.53603 0
      vertex 0.0889931 -2.54845 0
    endloop
  endfacet
  facet normal -0.438369 -0.898795 0
    outer loop
      vertex -1.275 -2.20836 0
      vertex -0.955246 -2.36432 4.5
      vertex -1.275 -2.20836 4.5
    endloop
  endfacet
  facet normal -0.438369 -0.898795 -0
    outer loop
      vertex -0.955246 -2.36432 4.5
      vertex -1.275 -2.20836 0
      vertex -0.955246 -2.36432 0
    endloop
  endfacet
  facet normal -0.766045 -0.642787 0
    outer loop
      vertex -1.83432 -1.77138 0
      vertex -2.06299 -1.49885 4.5
      vertex -2.06299 -1.49885 0
    endloop
  endfacet
  facet normal -0.766045 -0.642787 0
    outer loop
      vertex -2.06299 -1.49885 4.5
      vertex -1.83432 -1.77138 0
      vertex -1.83432 -1.77138 4.5
    endloop
  endfacet
  facet normal 0.71934 -0.694659 0
    outer loop
      vertex 1.70628 -1.89502 4.5
      vertex 1.95341 -1.63911 0
      vertex 1.95341 -1.63911 4.5
    endloop
  endfacet
  facet normal 0.71934 -0.694659 0
    outer loop
      vertex 1.95341 -1.63911 0
      vertex 1.70628 -1.89502 4.5
      vertex 1.70628 -1.89502 0
    endloop
  endfacet
  facet normal -0.309019 -0.951056 0
    outer loop
      vertex -0.955246 -2.36432 0
      vertex -0.6169 -2.47425 4.5
      vertex -0.955246 -2.36432 4.5
    endloop
  endfacet
  facet normal -0.309019 -0.951056 -0
    outer loop
      vertex -0.6169 -2.47425 4.5
      vertex -0.955246 -2.36432 0
      vertex -0.6169 -2.47425 0
    endloop
  endfacet
  facet normal -0.997564 -0.0697585 0
    outer loop
      vertex 1.825 0 0
      vertex 1.80724 0.25399 4.5
      vertex 1.80724 0.25399 0
    endloop
  endfacet
  facet normal -0.997564 -0.0697585 0
    outer loop
      vertex 1.80724 0.25399 4.5
      vertex 1.825 0 0
      vertex 1.825 0 4.5
    endloop
  endfacet
  facet normal 1 -0 0
    outer loop
      vertex -1.82055 -0.127305 4.5
      vertex -1.82055 0.127305 0
      vertex -1.82055 0.127305 4.5
    endloop
  endfacet
  facet normal 1 0 0
    outer loop
      vertex -1.82055 0.127305 0
      vertex -1.82055 -0.127305 4.5
      vertex -1.82055 -0.127305 0
    endloop
  endfacet
  facet normal 0.0348979 -0.999391 0
    outer loop
      vertex -0.190764 1.815 0
      vertex 0.0636911 1.82389 4.5
      vertex -0.190764 1.815 4.5
    endloop
  endfacet
  facet normal 0.0348979 -0.999391 0
    outer loop
      vertex 0.0636911 1.82389 4.5
      vertex -0.190764 1.815 0
      vertex 0.0636911 1.82389 0
    endloop
  endfacet
  facet normal 0.0348979 0.999391 -0
    outer loop
      vertex 0.0636911 -1.82389 0
      vertex -0.190764 -1.815 4.5
      vertex 0.0636911 -1.82389 4.5
    endloop
  endfacet
  facet normal 0.0348979 0.999391 0
    outer loop
      vertex -0.190764 -1.815 4.5
      vertex 0.0636911 -1.82389 0
      vertex -0.190764 -1.815 0
    endloop
  endfacet
  facet normal -0.615663 -0.78801 0
    outer loop
      vertex 1.02053 1.51299 0
      vertex 1.22116 1.35624 4.5
      vertex 1.02053 1.51299 4.5
    endloop
  endfacet
  facet normal -0.615663 -0.78801 -0
    outer loop
      vertex 1.22116 1.35624 4.5
      vertex 1.02053 1.51299 0
      vertex 1.22116 1.35624 0
    endloop
  endfacet
  facet normal 0.766044 -0.642788 0
    outer loop
      vertex -1.47646 1.07271 4.5
      vertex -1.31279 1.26775 0
      vertex -1.31279 1.26775 4.5
    endloop
  endfacet
  facet normal 0.766044 -0.642788 0
    outer loop
      vertex -1.31279 1.26775 0
      vertex -1.47646 1.07271 4.5
      vertex -1.47646 1.07271 0
    endloop
  endfacet
  facet normal 0.438372 -0.898794 0
    outer loop
      vertex -0.912499 1.5805 0
      vertex -0.683657 1.69211 4.5
      vertex -0.912499 1.5805 4.5
    endloop
  endfacet
  facet normal 0.438372 -0.898794 0
    outer loop
      vertex -0.683657 1.69211 4.5
      vertex -0.912499 1.5805 0
      vertex -0.683657 1.69211 0
    endloop
  endfacet
  facet normal 0.961261 0.275639 0
    outer loop
      vertex -1.71494 -0.624187 4.5
      vertex -1.78512 -0.379438 0
      vertex -1.78512 -0.379438 4.5
    endloop
  endfacet
  facet normal 0.961261 0.275639 0
    outer loop
      vertex -1.78512 -0.379438 0
      vertex -1.71494 -0.624187 4.5
      vertex -1.71494 -0.624187 0
    endloop
  endfacet
  facet normal -0.882947 -0.469472 0
    outer loop
      vertex 1.66722 0.742294 0
      vertex 1.54769 0.967102 4.5
      vertex 1.54769 0.967102 0
    endloop
  endfacet
  facet normal -0.882947 -0.469472 0
    outer loop
      vertex 1.54769 0.967102 4.5
      vertex 1.66722 0.742294 0
      vertex 1.66722 0.742294 4.5
    endloop
  endfacet
  facet normal -0.809016 -0.587786 0
    outer loop
      vertex 1.54769 0.967102 0
      vertex 1.39803 1.17309 4.5
      vertex 1.39803 1.17309 0
    endloop
  endfacet
  facet normal -0.809016 -0.587786 0
    outer loop
      vertex 1.39803 1.17309 4.5
      vertex 1.54769 0.967102 0
      vertex 1.54769 0.967102 4.5
    endloop
  endfacet
  facet normal -0.374606 -0.927184 0
    outer loop
      vertex 0.563955 1.73568 0
      vertex 0.800027 1.6403 4.5
      vertex 0.563955 1.73568 4.5
    endloop
  endfacet
  facet normal -0.374606 -0.927184 -0
    outer loop
      vertex 0.800027 1.6403 4.5
      vertex 0.563955 1.73568 0
      vertex 0.800027 1.6403 0
    endloop
  endfacet
  facet normal -0.241922 -0.970296 0
    outer loop
      vertex 0.316908 1.79727 0
      vertex 0.563955 1.73568 4.5
      vertex 0.316908 1.79727 4.5
    endloop
  endfacet
  facet normal -0.241922 -0.970296 -0
    outer loop
      vertex 0.563955 1.73568 4.5
      vertex 0.316908 1.79727 0
      vertex 0.563955 1.73568 0
    endloop
  endfacet
  facet normal -0.500001 -0.866025 0
    outer loop
      vertex 0.800027 1.6403 0
      vertex 1.02053 1.51299 4.5
      vertex 0.800027 1.6403 4.5
    endloop
  endfacet
  facet normal -0.500001 -0.866025 -0
    outer loop
      vertex 1.02053 1.51299 4.5
      vertex 0.800027 1.6403 0
      vertex 1.02053 1.51299 0
    endloop
  endfacet
  facet normal 0.913545 -0.406737 0
    outer loop
      vertex -1.71494 0.624187 4.5
      vertex -1.61138 0.856785 0
      vertex -1.61138 0.856785 4.5
    endloop
  endfacet
  facet normal 0.913545 -0.406737 0
    outer loop
      vertex -1.61138 0.856785 0
      vertex -1.71494 0.624187 4.5
      vertex -1.71494 0.624187 0
    endloop
  endfacet
  facet normal 0.848049 -0.529918 0
    outer loop
      vertex -1.61138 0.856785 4.5
      vertex -1.47646 1.07271 0
      vertex -1.47646 1.07271 4.5
    endloop
  endfacet
  facet normal 0.848049 -0.529918 0
    outer loop
      vertex -1.47646 1.07271 0
      vertex -1.61138 0.856785 4.5
      vertex -1.61138 0.856785 0
    endloop
  endfacet
  facet normal 0.990268 -0.139172 0
    outer loop
      vertex -1.82055 0.127305 4.5
      vertex -1.78512 0.379438 0
      vertex -1.78512 0.379438 4.5
    endloop
  endfacet
  facet normal 0.990268 -0.139172 0
    outer loop
      vertex -1.78512 0.379438 0
      vertex -1.82055 0.127305 4.5
      vertex -1.82055 0.127305 0
    endloop
  endfacet
  facet normal 0.559193 -0.829038 0
    outer loop
      vertex -1.12358 1.43812 0
      vertex -0.912499 1.5805 4.5
      vertex -1.12358 1.43812 4.5
    endloop
  endfacet
  facet normal 0.559193 -0.829038 0
    outer loop
      vertex -0.912499 1.5805 4.5
      vertex -1.12358 1.43812 0
      vertex -0.912499 1.5805 0
    endloop
  endfacet
  facet normal 0.309017 -0.951057 0
    outer loop
      vertex -0.683657 1.69211 0
      vertex -0.441507 1.77079 4.5
      vertex -0.683657 1.69211 4.5
    endloop
  endfacet
  facet normal 0.309017 -0.951057 0
    outer loop
      vertex -0.441507 1.77079 4.5
      vertex -0.683657 1.69211 0
      vertex -0.441507 1.77079 0
    endloop
  endfacet
  facet normal -0.241922 0.970296 0
    outer loop
      vertex 0.563955 -1.73568 0
      vertex 0.316908 -1.79727 4.5
      vertex 0.563955 -1.73568 4.5
    endloop
  endfacet
  facet normal -0.241922 0.970296 0
    outer loop
      vertex 0.316908 -1.79727 4.5
      vertex 0.563955 -1.73568 0
      vertex 0.316908 -1.79727 0
    endloop
  endfacet
  facet normal -0.104529 0.994522 0
    outer loop
      vertex 0.316908 -1.79727 0
      vertex 0.0636911 -1.82389 4.5
      vertex 0.316908 -1.79727 4.5
    endloop
  endfacet
  facet normal -0.104529 0.994522 0
    outer loop
      vertex 0.0636911 -1.82389 4.5
      vertex 0.316908 -1.79727 0
      vertex 0.0636911 -1.82389 0
    endloop
  endfacet
  facet normal -0.719339 0.694659 0
    outer loop
      vertex 1.22116 -1.35624 0
      vertex 1.39803 -1.17309 4.5
      vertex 1.39803 -1.17309 0
    endloop
  endfacet
  facet normal -0.719339 0.694659 0
    outer loop
      vertex 1.39803 -1.17309 4.5
      vertex 1.22116 -1.35624 0
      vertex 1.22116 -1.35624 4.5
    endloop
  endfacet
  facet normal -0.500001 0.866025 0
    outer loop
      vertex 1.02053 -1.51299 0
      vertex 0.800027 -1.6403 4.5
      vertex 1.02053 -1.51299 4.5
    endloop
  endfacet
  facet normal -0.500001 0.866025 0
    outer loop
      vertex 0.800027 -1.6403 4.5
      vertex 1.02053 -1.51299 0
      vertex 0.800027 -1.6403 0
    endloop
  endfacet
  facet normal -0.882947 0.469472 0
    outer loop
      vertex 1.54769 -0.967102 0
      vertex 1.66722 -0.742294 4.5
      vertex 1.66722 -0.742294 0
    endloop
  endfacet
  facet normal -0.882947 0.469472 0
    outer loop
      vertex 1.66722 -0.742294 4.5
      vertex 1.54769 -0.967102 0
      vertex 1.54769 -0.967102 4.5
    endloop
  endfacet
  facet normal 0.559193 0.829038 -0
    outer loop
      vertex -0.912499 -1.5805 0
      vertex -1.12358 -1.43812 4.5
      vertex -0.912499 -1.5805 4.5
    endloop
  endfacet
  facet normal 0.559193 0.829038 0
    outer loop
      vertex -1.12358 -1.43812 4.5
      vertex -0.912499 -1.5805 0
      vertex -1.12358 -1.43812 0
    endloop
  endfacet
  facet normal 0.309017 0.951057 -0
    outer loop
      vertex -0.441507 -1.77079 0
      vertex -0.683657 -1.69211 4.5
      vertex -0.441507 -1.77079 4.5
    endloop
  endfacet
  facet normal 0.309017 0.951057 0
    outer loop
      vertex -0.683657 -1.69211 4.5
      vertex -0.441507 -1.77079 0
      vertex -0.683657 -1.69211 0
    endloop
  endfacet
  facet normal 0.848049 0.529918 0
    outer loop
      vertex -1.47646 -1.07271 4.5
      vertex -1.61138 -0.856785 0
      vertex -1.61138 -0.856785 4.5
    endloop
  endfacet
  facet normal 0.848049 0.529918 0
    outer loop
      vertex -1.61138 -0.856785 0
      vertex -1.47646 -1.07271 4.5
      vertex -1.47646 -1.07271 0
    endloop
  endfacet
  facet normal 0.766044 0.642788 0
    outer loop
      vertex -1.31279 -1.26775 4.5
      vertex -1.47646 -1.07271 0
      vertex -1.47646 -1.07271 4.5
    endloop
  endfacet
  facet normal 0.766044 0.642788 0
    outer loop
      vertex -1.47646 -1.07271 0
      vertex -1.31279 -1.26775 4.5
      vertex -1.31279 -1.26775 0
    endloop
  endfacet
  facet normal 0.990268 0.139172 0
    outer loop
      vertex -1.78512 -0.379438 4.5
      vertex -1.82055 -0.127305 0
      vertex -1.82055 -0.127305 4.5
    endloop
  endfacet
  facet normal 0.990268 0.139172 0
    outer loop
      vertex -1.82055 -0.127305 0
      vertex -1.78512 -0.379438 4.5
      vertex -1.78512 -0.379438 0
    endloop
  endfacet
  facet normal -0.939693 -0.342019 0
    outer loop
      vertex 1.7543 0.503037 0
      vertex 1.66722 0.742294 4.5
      vertex 1.66722 0.742294 0
    endloop
  endfacet
  facet normal -0.939693 -0.342019 0
    outer loop
      vertex 1.66722 0.742294 4.5
      vertex 1.7543 0.503037 0
      vertex 1.7543 0.503037 4.5
    endloop
  endfacet
  facet normal -0.978148 -0.207911 0
    outer loop
      vertex 1.80724 0.25399 0
      vertex 1.7543 0.503037 4.5
      vertex 1.7543 0.503037 0
    endloop
  endfacet
  facet normal -0.978148 -0.207911 0
    outer loop
      vertex 1.7543 0.503037 4.5
      vertex 1.80724 0.25399 0
      vertex 1.80724 0.25399 4.5
    endloop
  endfacet
  facet normal -0.719339 -0.694659 0
    outer loop
      vertex 1.39803 1.17309 0
      vertex 1.22116 1.35624 4.5
      vertex 1.22116 1.35624 0
    endloop
  endfacet
  facet normal -0.719339 -0.694659 0
    outer loop
      vertex 1.22116 1.35624 4.5
      vertex 1.39803 1.17309 0
      vertex 1.39803 1.17309 4.5
    endloop
  endfacet
  facet normal -0.104529 -0.994522 0
    outer loop
      vertex 0.0636911 1.82389 0
      vertex 0.316908 1.79727 4.5
      vertex 0.0636911 1.82389 4.5
    endloop
  endfacet
  facet normal -0.104529 -0.994522 -0
    outer loop
      vertex 0.316908 1.79727 4.5
      vertex 0.0636911 1.82389 0
      vertex 0.316908 1.79727 0
    endloop
  endfacet
  facet normal 0.961261 -0.275639 0
    outer loop
      vertex -1.78512 0.379438 4.5
      vertex -1.71494 0.624187 0
      vertex -1.71494 0.624187 4.5
    endloop
  endfacet
  facet normal 0.961261 -0.275639 0
    outer loop
      vertex -1.71494 0.624187 0
      vertex -1.78512 0.379438 4.5
      vertex -1.78512 0.379438 0
    endloop
  endfacet
  facet normal 0.669131 -0.743144 0
    outer loop
      vertex -1.31279 1.26775 0
      vertex -1.12358 1.43812 4.5
      vertex -1.31279 1.26775 4.5
    endloop
  endfacet
  facet normal 0.669131 -0.743144 0
    outer loop
      vertex -1.12358 1.43812 4.5
      vertex -1.31279 1.26775 0
      vertex -1.12358 1.43812 0
    endloop
  endfacet
  facet normal 0.17365 -0.984807 0
    outer loop
      vertex -0.441507 1.77079 0
      vertex -0.190764 1.815 4.5
      vertex -0.441507 1.77079 4.5
    endloop
  endfacet
  facet normal 0.17365 -0.984807 0
    outer loop
      vertex -0.190764 1.815 4.5
      vertex -0.441507 1.77079 0
      vertex -0.190764 1.815 0
    endloop
  endfacet
  facet normal -0.615663 0.78801 0
    outer loop
      vertex 1.22116 -1.35624 0
      vertex 1.02053 -1.51299 4.5
      vertex 1.22116 -1.35624 4.5
    endloop
  endfacet
  facet normal -0.615663 0.78801 0
    outer loop
      vertex 1.02053 -1.51299 4.5
      vertex 1.22116 -1.35624 0
      vertex 1.02053 -1.51299 0
    endloop
  endfacet
  facet normal -0.939693 0.342019 0
    outer loop
      vertex 1.66722 -0.742294 0
      vertex 1.7543 -0.503037 4.5
      vertex 1.7543 -0.503037 0
    endloop
  endfacet
  facet normal -0.939693 0.342019 0
    outer loop
      vertex 1.7543 -0.503037 4.5
      vertex 1.66722 -0.742294 0
      vertex 1.66722 -0.742294 4.5
    endloop
  endfacet
  facet normal -0.809016 0.587786 0
    outer loop
      vertex 1.39803 -1.17309 0
      vertex 1.54769 -0.967102 4.5
      vertex 1.54769 -0.967102 0
    endloop
  endfacet
  facet normal -0.809016 0.587786 0
    outer loop
      vertex 1.54769 -0.967102 4.5
      vertex 1.39803 -1.17309 0
      vertex 1.39803 -1.17309 4.5
    endloop
  endfacet
  facet normal 0.438372 0.898794 -0
    outer loop
      vertex -0.683657 -1.69211 0
      vertex -0.912499 -1.5805 4.5
      vertex -0.683657 -1.69211 4.5
    endloop
  endfacet
  facet normal 0.438372 0.898794 0
    outer loop
      vertex -0.912499 -1.5805 4.5
      vertex -0.683657 -1.69211 0
      vertex -0.912499 -1.5805 0
    endloop
  endfacet
  facet normal 0.669131 0.743144 -0
    outer loop
      vertex -1.12358 -1.43812 0
      vertex -1.31279 -1.26775 4.5
      vertex -1.12358 -1.43812 4.5
    endloop
  endfacet
  facet normal 0.669131 0.743144 0
    outer loop
      vertex -1.31279 -1.26775 4.5
      vertex -1.12358 -1.43812 0
      vertex -1.31279 -1.26775 0
    endloop
  endfacet
  facet normal 0.913545 0.406737 0
    outer loop
      vertex -1.61138 -0.856785 4.5
      vertex -1.71494 -0.624187 0
      vertex -1.71494 -0.624187 4.5
    endloop
  endfacet
  facet normal 0.913545 0.406737 0
    outer loop
      vertex -1.71494 -0.624187 0
      vertex -1.61138 -0.856785 4.5
      vertex -1.61138 -0.856785 0
    endloop
  endfacet
  facet normal -0.374606 0.927184 0
    outer loop
      vertex 0.800027 -1.6403 0
      vertex 0.563955 -1.73568 4.5
      vertex 0.800027 -1.6403 4.5
    endloop
  endfacet
  facet normal -0.374606 0.927184 0
    outer loop
      vertex 0.563955 -1.73568 4.5
      vertex 0.800027 -1.6403 0
      vertex 0.563955 -1.73568 0
    endloop
  endfacet
  facet normal -0.978148 0.207911 0
    outer loop
      vertex 1.7543 -0.503037 0
      vertex 1.80724 -0.25399 4.5
      vertex 1.80724 -0.25399 0
    endloop
  endfacet
  facet normal -0.978148 0.207911 0
    outer loop
      vertex 1.80724 -0.25399 4.5
      vertex 1.7543 -0.503037 0
      vertex 1.7543 -0.503037 4.5
    endloop
  endfacet
  facet normal 0.17365 0.984807 -0
    outer loop
      vertex -0.190764 -1.815 0
      vertex -0.441507 -1.77079 4.5
      vertex -0.190764 -1.815 4.5
    endloop
  endfacet
  facet normal 0.17365 0.984807 0
    outer loop
      vertex -0.441507 -1.77079 4.5
      vertex -0.190764 -1.815 0
      vertex -0.441507 -1.77079 0
    endloop
  endfacet
  facet normal -0.997564 0.0697585 0
    outer loop
      vertex 1.80724 -0.25399 0
      vertex 1.825 0 4.5
      vertex 1.825 0 0
    endloop
  endfacet
  facet normal -0.997564 0.0697585 0
    outer loop
      vertex 1.825 0 4.5
      vertex 1.80724 -0.25399 0
      vertex 1.80724 -0.25399 4.5
    endloop
  endfacet
endsolid OpenSCAD_Model
